<svg width="12" height="12" viewBox="0 0 12 12" fill="none" xmlns="http://www.w3.org/2000/svg">
<g id="platform=instagram">
<path id="Vector/instagram" d="M6.00134 2.92404C4.29872 2.92404 2.92538 4.29738 2.92538 6C2.92538 7.70263 4.29872 9.07597 6.00134 9.07597C7.70396 9.07597 9.0773 7.70263 9.0773 6C9.0773 4.29738 7.70396 2.92404 6.00134 2.92404ZM6.00134 7.99978C4.90106 7.99978 4.00156 7.10296 4.00156 6C4.00156 4.89705 4.89838 4.00023 6.00134 4.00023C7.10429 4.00023 8.00112 4.89705 8.00112 6C8.00112 7.10296 7.10162 7.99978 6.00134 7.99978ZM9.92058 2.79822C9.92058 3.1971 9.59933 3.51568 9.20312 3.51568C8.80424 3.51568 8.48567 3.19443 8.48567 2.79822C8.48567 2.40201 8.80692 2.08076 9.20312 2.08076C9.59933 2.08076 9.92058 2.40201 9.92058 2.79822ZM11.9578 3.52638C11.9123 2.56531 11.6928 1.714 10.9887 1.01261C10.2873 0.311214 9.43603 0.0916941 8.47496 0.0435067C7.48444 -0.0127119 4.51556 -0.0127119 3.52504 0.0435067C2.56665 0.0890171 1.71534 0.308537 1.01127 1.00993C0.307195 1.71133 0.0903514 2.56264 0.042164 3.52371C-0.0140547 4.51423 -0.0140547 7.4831 0.042164 8.47362C0.0876743 9.43469 0.307195 10.286 1.01127 10.9874C1.71534 11.6888 2.56397 11.9083 3.52504 11.9565C4.51556 12.0127 7.48444 12.0127 8.47496 11.9565C9.43603 11.911 10.2873 11.6915 10.9887 10.9874C11.6901 10.286 11.9096 9.43469 11.9578 8.47362C12.0141 7.4831 12.0141 4.5169 11.9578 3.52638ZM10.6782 9.53642C10.4694 10.0611 10.0651 10.4654 9.53776 10.6769C8.74802 10.9901 6.87407 10.9178 6.00134 10.9178C5.12861 10.9178 3.25198 10.9874 2.46492 10.6769C1.94021 10.468 1.53597 10.0638 1.32448 9.53642C1.01127 8.74669 1.08355 6.87273 1.08355 6C1.08355 5.12728 1.01394 3.25065 1.32448 2.46358C1.5333 1.93888 1.93753 1.53464 2.46492 1.32315C3.25466 1.00993 5.12861 1.08221 6.00134 1.08221C6.87407 1.08221 8.7507 1.01261 9.53776 1.32315C10.0625 1.53196 10.4667 1.9362 10.6782 2.46358C10.9914 3.25332 10.9191 5.12728 10.9191 6C10.9191 6.87273 10.9914 8.74936 10.6782 9.53642Z" fill="#ffffff"/>
</g>
</svg>
