<svg width="17" height="12" viewBox="0 0 17 12" fill="none" xmlns="http://www.w3.org/2000/svg">
<g id="platform=mail">
<path id="icon/mail" d="M14.9996 0H1.99957C1.17114 0 0.499573 0.671562 0.499573 1.5V10.5C0.499573 11.3284 1.17114 12 1.99957 12H14.9996C15.828 12 16.4996 11.3284 16.4996 10.5V1.5C16.4996 0.671562 15.828 0 14.9996 0ZM14.9996 1.5V2.77516C14.2989 3.34575 13.1818 4.233 10.7937 6.10297C10.2674 6.51694 9.22495 7.51147 8.49957 7.49988C7.77432 7.51159 6.73148 6.51678 6.20542 6.10297C3.8177 4.23328 2.70035 3.34584 1.99957 2.77516V1.5H14.9996ZM1.99957 10.5V4.69994C2.71564 5.27028 3.7311 6.07063 5.27889 7.28263C5.96192 7.82028 7.15807 9.00719 8.49957 8.99997C9.83448 9.00719 11.0155 7.8375 11.72 7.28288C13.2677 6.07091 14.2835 5.27034 14.9996 4.69997V10.5H1.99957Z" fill="#F1F1F1"/>
</g>
</svg>
