<svg width="13" height="12" viewBox="0 0 13 12" fill="none" xmlns="http://www.w3.org/2000/svg">
<g id="platform=rss">
<path id="Vector/rss" d="M3.93036 10.2846C3.93036 11.232 3.16237 12 2.21499 12C1.2676 12 0.499634 11.232 0.499634 10.2846C0.499634 9.33721 1.26763 8.56922 2.21501 8.56922C3.16239 8.56922 3.93036 9.33724 3.93036 10.2846ZM8.63553 11.5502C8.41176 7.40916 5.09487 4.08809 0.949391 3.86408C0.704705 3.85085 0.499634 4.04745 0.499634 4.29249V5.58005C0.499634 5.80545 0.673473 5.99447 0.898391 6.0091C3.89388 6.20421 6.29497 8.59932 6.49048 11.6012C6.50513 11.8261 6.69416 11.9999 6.91953 11.9999H8.20709C8.45215 12 8.64876 11.7949 8.63553 11.5502ZM12.4993 11.5579C12.2745 5.29491 7.23528 0.226215 0.941677 0.000278326C0.699803 -0.00840022 0.499634 0.187001 0.499634 0.429009V1.71654C0.499634 1.94757 0.682714 2.1356 0.913552 2.14508C6.0344 2.35506 10.1446 6.46604 10.3545 11.5861C10.364 11.8169 10.552 12 10.7831 12H12.0706C12.3126 12 12.508 11.7998 12.4993 11.5579Z" fill="#ffffff"/>
</g>
</svg>
