<svg width="13" height="12" viewBox="0 0 13 12" fill="none" xmlns="http://www.w3.org/2000/svg">
<g id="platform=search">
<path id="icon/search" d="M0.66277 10.3748L2.99966 8.03828C3.10514 7.93282 3.24812 7.87423 3.39813 7.87423H3.78019C3.13326 7.04697 2.74886 6.00644 2.74886 4.87452C2.74886 2.18182 4.93105 0 7.62422 0C10.3174 0 12.4996 2.18182 12.4996 4.87452C12.4996 7.56723 10.3174 9.74905 7.62422 9.74905C6.4921 9.74905 5.4514 9.36471 4.624 8.7179V9.09989C4.624 9.24988 4.5654 9.39283 4.45992 9.49829L2.12303 11.8348C1.9027 12.0551 1.54643 12.0551 1.32844 11.8348L0.665114 11.1716C0.444785 10.9513 0.444785 10.5951 0.66277 10.3748ZM7.62422 7.87423C9.28137 7.87423 10.6244 6.53374 10.6244 4.87452C10.6244 3.21765 9.28371 1.87482 7.62422 1.87482C5.96706 1.87482 4.624 3.21531 4.624 4.87452C4.624 6.53139 5.96472 7.87423 7.62422 7.87423Z" fill="#F1F1F1"/>
</g>
</svg>
