<svg width="11" height="12" viewBox="0 0 11 12" fill="none" xmlns="http://www.w3.org/2000/svg">
<g id="platform=tiktok">
<path id="Vector/tiktok" d="M10.4996 4.92101C9.46751 4.92348 8.46072 4.60161 7.62146 4.00086V8.19067C7.62118 8.96667 7.38399 9.72408 6.94162 10.3616C6.49925 10.9992 5.87278 11.4865 5.14597 11.7584C4.41917 12.0303 3.62668 12.0738 2.87447 11.8832C2.12225 11.6925 1.44617 11.2768 0.93663 10.6915C0.427087 10.1062 0.108366 9.37936 0.0230853 8.60806C-0.0621952 7.83676 0.0900296 7.05781 0.459405 6.37536C0.828781 5.69291 1.3977 5.1395 2.09009 4.78911C2.78248 4.43873 3.56534 4.30808 4.33399 4.41463V6.52196C3.98226 6.41133 3.60456 6.41466 3.25483 6.53149C2.9051 6.64831 2.60123 6.87266 2.38661 7.17249C2.17199 7.47232 2.0576 7.83229 2.05977 8.20101C2.06195 8.56973 2.18057 8.92833 2.39871 9.22561C2.61684 9.52289 2.92333 9.74364 3.27441 9.85634C3.62549 9.96904 4.00321 9.96793 4.35361 9.85315C4.70402 9.73838 5.0092 9.51582 5.22557 9.21726C5.44195 8.91869 5.55845 8.55939 5.55844 8.19067V0H7.62146C7.62003 0.174218 7.63463 0.348198 7.66507 0.519741C7.73676 0.902685 7.88581 1.26698 8.10312 1.59034C8.32043 1.9137 8.60142 2.18933 8.92891 2.40037C9.39482 2.70844 9.94106 2.87264 10.4996 2.87252V4.92101Z" fill="#ffffff"/>
</g>
</svg>
