<svg width="15" height="12" viewBox="0 0 15 12" fill="none" xmlns="http://www.w3.org/2000/svg">
<g id="platform=youtube">
<path id="Vector/youtube" d="M14.6866 2.3768C14.514 1.72723 14.0058 1.21565 13.3604 1.04204C12.1906 0.72657 7.5 0.72657 7.5 0.72657C7.5 0.72657 2.80939 0.72657 1.6396 1.04204C0.994234 1.21568 0.485952 1.72723 0.31344 2.3768C0 3.55417 0 6.01066 0 6.01066C0 6.01066 0 8.46714 0.31344 9.64452C0.485952 10.2941 0.994234 10.7843 1.6396 10.958C2.80939 11.2734 7.5 11.2734 7.5 11.2734C7.5 11.2734 12.1906 11.2734 13.3604 10.958C14.0058 10.7843 14.514 10.2941 14.6866 9.64452C15 8.46714 15 6.01066 15 6.01066C15 6.01066 15 3.55417 14.6866 2.3768ZM5.9659 8.24096V3.78035L9.88634 6.01071L5.9659 8.24096Z" fill="#ffffff"/>
</g>
</svg>
